<mxfile host="app.diagrams.net" modified="2020-08-28T10:33:52.517Z" agent="5.0 (Windows NT 10.0; Win64; x64) AppleWebKit/537.36 (KHTML, like Gecko) Chrome/84.0.4147.135 Safari/537.36" etag="93-E4IvVZ1DwtQQR7xcR" version="13.6.5" type="github">
  <diagram id="SZzoiSN_OJ3JB-Tvaes3" name="Page-1">
    <mxGraphModel dx="1173" dy="662" grid="1" gridSize="10" guides="1" tooltips="1" connect="1" arrows="1" fold="1" page="1" pageScale="1" pageWidth="827" pageHeight="1169" math="0" shadow="0">
      <root>
        <mxCell id="0" />
        <mxCell id="1" parent="0" />
        <mxCell id="bTTepjC0mgRM0_KY9mRd-34" value="" style="edgeStyle=orthogonalEdgeStyle;curved=0;rounded=1;sketch=0;orthogonalLoop=1;jettySize=auto;html=1;" edge="1" parent="1" source="bTTepjC0mgRM0_KY9mRd-1" target="bTTepjC0mgRM0_KY9mRd-33">
          <mxGeometry relative="1" as="geometry" />
        </mxCell>
        <mxCell id="bTTepjC0mgRM0_KY9mRd-1" value="라운드 시작" style="ellipse;whiteSpace=wrap;html=1;rounded=0;sketch=0;" vertex="1" parent="1">
          <mxGeometry x="283" y="10" width="230" height="80" as="geometry" />
        </mxCell>
        <mxCell id="bTTepjC0mgRM0_KY9mRd-35" value="" style="edgeStyle=orthogonalEdgeStyle;curved=0;rounded=1;sketch=0;orthogonalLoop=1;jettySize=auto;html=1;" edge="1" parent="1" source="bTTepjC0mgRM0_KY9mRd-33">
          <mxGeometry relative="1" as="geometry">
            <mxPoint x="398" y="219.9999999999999" as="targetPoint" />
          </mxGeometry>
        </mxCell>
        <mxCell id="bTTepjC0mgRM0_KY9mRd-33" value="서로 2장씩 카드를 받는다" style="rounded=0;whiteSpace=wrap;html=1;sketch=0;" vertex="1" parent="1">
          <mxGeometry x="288" y="120" width="220" height="60" as="geometry" />
        </mxCell>
        <mxCell id="bTTepjC0mgRM0_KY9mRd-68" style="edgeStyle=orthogonalEdgeStyle;curved=0;rounded=1;sketch=0;orthogonalLoop=1;jettySize=auto;html=1;" edge="1" parent="1" source="bTTepjC0mgRM0_KY9mRd-58" target="bTTepjC0mgRM0_KY9mRd-65">
          <mxGeometry relative="1" as="geometry" />
        </mxCell>
        <mxCell id="bTTepjC0mgRM0_KY9mRd-70" value="" style="edgeStyle=orthogonalEdgeStyle;curved=0;rounded=1;sketch=0;orthogonalLoop=1;jettySize=auto;html=1;" edge="1" parent="1" source="bTTepjC0mgRM0_KY9mRd-58" target="bTTepjC0mgRM0_KY9mRd-69">
          <mxGeometry relative="1" as="geometry" />
        </mxCell>
        <mxCell id="bTTepjC0mgRM0_KY9mRd-58" value="플레이어 액션 수행" style="shape=parallelogram;perimeter=parallelogramPerimeter;whiteSpace=wrap;html=1;fixedSize=1;rounded=0;sketch=0;" vertex="1" parent="1">
          <mxGeometry x="300" y="220" width="190" height="60" as="geometry" />
        </mxCell>
        <mxCell id="bTTepjC0mgRM0_KY9mRd-65" value="카드를 1장 받음" style="whiteSpace=wrap;html=1;rounded=0;sketch=0;" vertex="1" parent="1">
          <mxGeometry x="508" y="340" width="170" height="60" as="geometry" />
        </mxCell>
        <mxCell id="bTTepjC0mgRM0_KY9mRd-69" value="합이 21을 넘었는가?" style="rhombus;whiteSpace=wrap;html=1;rounded=0;sketch=0;" vertex="1" parent="1">
          <mxGeometry x="130" y="350" width="170" height="80" as="geometry" />
        </mxCell>
      </root>
    </mxGraphModel>
  </diagram>
</mxfile>
